<mxfile host="app.diagrams.net" modified="2023-11-25T07:33:30.178Z" agent="Mozilla/5.0 (Windows NT 10.0; Win64; x64) AppleWebKit/537.36 (KHTML, like Gecko) Chrome/119.0.0.0 Safari/537.36 Edg/119.0.0.0" version="22.1.4" etag="cJKAwuPbAYRk5k4mG1B5" type="github">
  <diagram name="Pagina-1" id="IEkkuuq3SR44oc7eJOlq">
    <mxGraphModel>
      <root>
        <mxCell id="0" />
        <mxCell id="1" parent="0" />
      </root>
    </mxGraphModel>
  </diagram>
</mxfile>
